<?xml version="1.0" standalone="no"?>
<!DOCTYPE svg PUBLIC "-//W3C//DTD SVG 20010904//EN"
 "http://www.w3.org/TR/2001/REC-SVG-20010904/DTD/svg10.dtd">
<svg version="1.0" xmlns="http://www.w3.org/2000/svg"
 width="556.000000pt" height="556.000000pt" viewBox="0 0 556.000000 556.000000"
 preserveAspectRatio="xMidYMid meet">
<metadata>
Created by potrace 1.11, written by Peter Selinger 2001-2013
</metadata>
<g transform="translate(0.000000,556.000000) scale(0.100000,-0.100000)"
fill="#000000" stroke="none">
<path d="M3600 5362 c-36 -16 -61 -43 -145 -157 -48 -66 -103 -140 -121 -165
-104 -140 -343 -466 -389 -530 -75 -104 -382 -523 -392 -535 -5 -5 -25 -33
-45 -60 l-37 -51 -673 3 -673 4 63 -38 c34 -21 115 -71 180 -112 156 -98 698
-433 720 -446 9 -6 148 -91 307 -191 160 -99 312 -193 338 -208 26 -16 46 -30
44 -32 -2 -2 -107 37 -233 87 -288 114 -550 218 -769 304 -690 271 -1261 497
-1295 513 -45 20 -112 19 -145 -2 -62 -41 -84 -132 -45 -186 20 -29 88 -79
1012 -755 l477 -349 -4 -668 c-2 -367 -3 -668 -1 -668 2 0 152 238 181 288 14
23 271 438 300 482 12 19 41 67 65 105 24 39 57 93 75 120 18 28 114 183 215
345 101 162 187 300 192 305 5 6 1 -12 -10 -40 -11 -27 -90 -225 -175 -440
-149 -374 -277 -700 -374 -945 -24 -63 -49 -124 -54 -135 -5 -11 -77 -191
-160 -400 -97 -243 -151 -392 -150 -413 1 -68 67 -132 136 -132 56 0 89 28
181 152 49 68 198 271 332 453 133 181 337 459 452 616 l209 285 668 -3 c416
-3 664 -1 658 5 -9 9 -814 510 -860 536 -11 6 -31 19 -45 28 -14 8 -122 76
-240 149 -118 73 -263 163 -323 201 -59 37 -111 68 -115 68 -4 1 -20 12 -37
26 -17 14 -21 21 -10 16 11 -5 256 -103 545 -217 289 -114 611 -241 715 -282
105 -41 309 -122 455 -180 146 -57 344 -136 440 -175 192 -77 241 -86 287 -52
35 25 63 79 63 120 0 17 -10 46 -22 64 -13 18 -120 104 -238 190 -439 320
-1025 749 -1035 757 -5 5 -56 42 -112 82 l-102 73 4 671 c2 480 0 665 -8 652
-5 -11 -13 -22 -17 -25 -3 -3 -56 -86 -116 -185 -189 -306 -732 -1179 -741
-1190 -5 -5 -28 -44 -53 -85 -24 -41 -47 -77 -50 -80 -3 -3 -14 -22 -25 -42
-10 -21 -21 -36 -22 -34 -2 2 84 223 190 492 107 269 223 561 258 649 35 88
64 162 65 165 0 3 5 16 11 30 6 14 54 133 106 265 52 132 141 354 196 493 101
253 113 300 90 345 -32 61 -113 94 -169 69z"/>
<path d="M2288 4655 c-2 -2 -21 -5 -43 -7 -106 -12 -195 -103 -213 -219 -38
-247 254 -400 440 -231 73 67 103 187 69 281 -22 61 -81 124 -138 149 -45 19
-108 34 -115 27z"/>
<path d="M4332 3605 c-158 -48 -233 -226 -158 -373 26 -51 61 -86 116 -117 27
-15 54 -20 115 -20 91 0 137 17 190 72 55 56 70 98 70 188 0 69 -4 86 -27 126
-65 110 -187 159 -306 124z"/>
<path d="M1143 2516 c-96 -46 -144 -118 -151 -227 -9 -152 105 -273 258 -273
152 0 263 110 264 260 0 147 -100 253 -248 261 -60 3 -79 0 -123 -21z"/>
<path d="M3320 1500 c-126 -24 -212 -129 -212 -260 -1 -110 56 -198 155 -240
259 -112 486 201 303 417 -52 61 -163 99 -246 83z"/>
</g>
</svg>
